<svg id="SvgjsSvg1020" width="288" height="288" xmlns="http://www.w3.org/2000/svg" version="1.1" xmlns:xlink="http://www.w3.org/1999/xlink" xmlns:svgjs="http://svgjs.com/svgjs"><defs id="SvgjsDefs1021"></defs><g id="SvgjsG1022"><svg xmlns="http://www.w3.org/2000/svg" viewBox="0 0 68 68" width="288" height="288"><path d="M66 19.078v3.98H2v-3.98c0-5.21 4.23-9.44 9.44-9.44h1.98v5.06c0 2.91 2.37 5.28 5.28 5.28s5.28-2.37 5.28-5.28v-5.06h20.04v5.06c0 2.91 2.37 5.28 5.28 5.28s5.28-2.37 5.28-5.28v-5.06h1.98c5.22 0 9.44 4.23 9.44 9.44z" fill="#ffffff" class="svgShape color000000-0 selectable"></path><path d="M21.98 5.127v9.57a3.28 3.28 0 1 1-6.56 0v-9.57a3.28 3.28 0 1 1 6.56 0zm30.601 0v9.57a3.28 3.28 0 1 1-6.56 0v-9.57a3.28 3.28 0 1 1 6.56 0zM2 25.053v31.67c0 5.21 4.23 9.43 9.44 9.43h45.12c5.22 0 9.44-4.22 9.44-9.43v-31.67H2zm20.127 32.6a2.198 2.198 0 0 1-2.198 2.198h-7.394a2.198 2.198 0 0 1-2.198-2.198V50.25c0-1.214.984-2.198 2.198-2.198h7.394c1.214 0 2.198.984 2.198 2.198v7.404zm0-17.196a2.198 2.198 0 0 1-2.198 2.198h-7.394a2.198 2.198 0 0 1-2.198-2.198v-7.403c0-1.214.984-2.199 2.198-2.199h7.394c1.214 0 2.198.985 2.198 2.199v7.403zm17.768 17.196a2.198 2.198 0 0 1-2.198 2.198h-7.394a2.198 2.198 0 0 1-2.198-2.198V50.25c0-1.214.984-2.198 2.198-2.198h7.394c1.214 0 2.198.984 2.198 2.198v7.404zm0-17.196a2.198 2.198 0 0 1-2.198 2.198h-7.394a2.198 2.198 0 0 1-2.198-2.198v-7.403c0-1.214.984-2.199 2.198-2.199h7.394c1.214 0 2.198.985 2.198 2.199v7.403zm17.768 17.196a2.198 2.198 0 0 1-2.198 2.198H48.07a2.198 2.198 0 0 1-2.198-2.198V50.25c0-1.214.984-2.198 2.198-2.198h7.394c1.214 0 2.198.984 2.198 2.198v7.404zm0-17.196a2.198 2.198 0 0 1-2.198 2.198H48.07a2.198 2.198 0 0 1-2.198-2.198v-7.403c0-1.214.984-2.199 2.198-2.199h7.394c1.214 0 2.198.985 2.198 2.199v7.403z" fill="#ffffff" class="svgShape color000000-1 selectable"></path></svg></g></svg>