<svg xmlns="http://www.w3.org/2000/svg" viewBox="0 0 512 512" width="288" height="288"><path fill-rule="evenodd" d="M211.718,174.714c-11.126,11.902-20.554,22.898-28.762,33.623-21.291,27.781-31.616,51.32-31.616,71.96,0,22.843,21.034,36.984,40.465,36.984,5.644,0,10.197-4.544,10.197-10.158s-4.554-10.158-10.197-10.158c-9.748,0-20.137-6.698-20.137-16.667,0-15.789,9.203-35.849,27.416-59.612,7.76-10.181,16.77-20.666,27.447-32.065,3.88-4.088,3.688-10.517-.449-14.359-4.073-3.838-10.485-3.636-14.365,.452Z" fill="#0e8fcf"/><path fill-rule="evenodd" d="M256,4.054C117.233,4.054,4.054,117.233,4.054,256s113.179,251.946,251.946,251.946,251.946-113.179,251.946-251.946S394.767,4.054,256,4.054Zm64.194,336.929c-18.084,0-31.071-4.81-41.813-14.433-1.025-.92-2.533-.981-3.655-.141-1.09,.84-1.443,2.302-.833,3.55,11.351,22.997,25.844,44.166,42.999,62.796,2.533,2.783,3.174,6.589,1.667,10.049-1.507,3.457-4.746,5.57-8.529,5.57h-108.059c-3.752,0-6.99-2.113-8.497-5.57-1.539-3.46-.898-7.266,1.667-10.049,17.155-18.63,31.616-39.799,42.967-62.796,.609-1.248,.289-2.71-.833-3.55-1.09-.84-2.597-.779-3.624,.141-10.773,9.623-23.76,14.433-41.812,14.433-35.432,0-64.194-27.185-64.194-60.686,0-57.579,57.781-115.158,118.512-172.737,5.515-5.246,14.172-5.246,19.688,0,60.763,57.579,118.512,115.158,118.512,172.737,0,33.501-28.73,60.686-64.162,60.686Z" fill="#0e8fcf"/></svg>
