<svg id="SvgjsSvg1001" width="288" height="288" xmlns="http://www.w3.org/2000/svg" version="1.1" xmlns:xlink="http://www.w3.org/1999/xlink" xmlns:svgjs="http://svgjs.com/svgjs"><defs id="SvgjsDefs1002"></defs><g id="SvgjsG1008"><svg xmlns="http://www.w3.org/2000/svg" enable-background="new 0 0 64 64" viewBox="0 0 64 64" width="288" height="288"><path d="M29.88,32.74c-0.8-0.55-1.76-0.86-2.8-0.86c-2.77,0-5.03,2.25-5.03,5.02c0,2.78,2.26,5.03,5.03,5.03s5.02-2.25,5.02-5.03
		c0-1.01-0.3-1.94-0.81-2.73l-3.21,3.2c-0.2,0.19-0.46,0.29-0.71,0.29c-0.26,0-0.51-0.1-0.71-0.3c-0.39-0.39-0.39-1.02,0-1.41
		L29.88,32.74z" fill="#0e8fcf" class="svgShape color000000-0 selectable"></path><path d="M32.72,32.74c0.87,1.17,1.38,2.61,1.38,4.16c0,3.88-3.15,7.03-7.02,7.03s-7.03-3.15-7.03-7.03c0-3.87,3.16-7.02,7.03-7.02
		c1.58,0,3.05,0.53,4.23,1.44l6.23-6.21c-2.79-2.48-6.45-3.99-10.46-3.99c-8.7,0-15.78,7.08-15.78,15.78
		c0,8.71,7.08,15.79,15.78,15.79s15.78-7.08,15.78-15.79c0-3.97-1.47-7.6-3.91-10.37L32.72,32.74z" fill="#0e8fcf" class="svgShape color000000-1 selectable"></path><path d="M44.86,36.9c0,9.81-7.98,17.79-17.78,17.79c-9.81,0-17.78-7.98-17.78-17.79c0-9.8,7.97-17.78,17.78-17.78
		c4.57,0,8.74,1.73,11.89,4.57l6.58-6.56c-4.84-4.52-11.33-7.3-18.47-7.3C12.15,9.83,0,21.97,0,36.9
		c0,14.94,12.15,27.08,27.08,27.08S54.16,51.84,54.16,36.9c0-7.08-2.73-13.53-7.2-18.35l-6.58,6.56
		C43.17,28.25,44.86,32.38,44.86,36.9z" fill="#0e8fcf" class="svgShape color000000-2 selectable"></path><path d="M63.91,7.16c-0.17-0.38-0.57-0.62-0.97-0.59l-5.85,0.36l0.37-5.84c0.02-0.42-0.21-0.8-0.59-0.97
		c-0.38-0.18-0.83-0.09-1.12,0.2l-6.37,6.37c-0.18,0.18-0.29,0.44-0.29,0.7v6.21l-2.13,2.12l-1.41,1.41
		c0.49,0.45,0.96,0.92,1.41,1.42l1.42-1.41l2.2-2.2h6.05c0.27,0,0.52-0.11,0.71-0.3l6.37-6.36C64,7.98,64.08,7.54,63.91,7.16z" fill="#0e8fcf" class="svgShape color000000-3 selectable"></path></svg></g></svg>