<svg id="SvgjsSvg1014" width="288" height="288" xmlns="http://www.w3.org/2000/svg" version="1.1" xmlns:xlink="http://www.w3.org/1999/xlink" xmlns:svgjs="http://svgjs.com/svgjs"><defs id="SvgjsDefs1015"></defs><g id="SvgjsG1016"><svg xmlns="http://www.w3.org/2000/svg" viewBox="0 0 32 32" width="288" height="288"><path d="M19.83 22h-7.66A1.17 1.17 0 0 0 11 23.17V25a5 5 0 0 0 10 0v-1.83A1.17 1.17 0 0 0 19.83 22zM15.41 5.37V21H12.9L11.29 5.37A2.23 2.23 0 0 1 13.35 3a2.23 2.23 0 0 1 2.06 2.37zM11.68 21h-1.29L6 6.32v-.11a2.12 2.12 0 0 1 2-2 2.14 2.14 0 0 1 2.06 2.22zM26 6.32 21.61 21h-1.29l1.56-14.59v-.06A2 2 0 1 1 26 6.21zm-5.29-1.03L19.1 21h-2.51V5.37A2.23 2.23 0 0 1 18.65 3a2.2 2.2 0 0 1 2.06 2.29z" fill="#0e8fcf" class="svgShape color000000-0 selectable"></path></svg></g></svg>