<svg xmlns="http://www.w3.org/2000/svg" viewBox="0 0 64 64" width="288" height="288"><path d="M63.85,49.48c-.34-.55-8.48-13.48-24.85-13.48-6.45,0-11.62,2.01-15.54,4.47-1.52-4.98-6.11-8.47-11.46-8.47-3.13,0-5.97,1.21-8.11,3.18-.04,.03-.09,.05-.12,.09-.01,.01-.02,.03-.03,.05-2.3,2.19-3.74,5.27-3.74,8.68s1.44,6.49,3.74,8.68c.01,.02,.02,.04,.03,.05,.03,.04,.07,.05,.11,.08,2.14,1.97,4.99,3.19,8.12,3.19,1.91,0,3.78-.48,5.48-1.35,3.82,3.97,10.95,9.35,21.52,9.35,16.37,0,24.51-12.93,24.85-13.48,.2-.3199,.2-.72,0-1.04Zm-59.34,1.12c-1.56-1.76-2.51-4.07-2.51-6.6s.95-4.84,2.51-6.6c1.61,1.82,2.49,4.13,2.49,6.6s-.88,4.78-2.49,6.6Zm14.99-13.22c1.06,1.2,1.83,2.65,2.22,4.28-1.8799,1.36-3.4,2.78-4.5699,4.03-.1-.55-.15-1.12-.15-1.69,0-2.47,.88-4.79,2.5-6.62Zm2.5,18.6c-3.1-2.44-5.04-4.93-5.79-5.98,.75-1.06,2.69-3.55,5.79-5.99v11.97Zm4,2.65c-.71-.39-1.37-.79-2-1.21v-14.85c.63-.42,1.29-.82,2-1.21v17.27Zm20-7.63h-1v1c0,.55-.45,1-1,1s-1-.45-1-1v-1h-3v1c0,.55-.45,1-1,1s-1-.45-1-1v-1h-3v1c0,.55-.45,1-1,1s-1-.45-1-1v-1h-1c-.55,0-1-.45-1-1s.45-1,1-1h1v-1c0-.55,.45-1,1-1s1,.45,1,1v1h3v-1c0-.55,.45-1,1-1s1,.45,1,1v1h3v-1c0-.55,.45-1,1-1s1,.45,1,1v1h1c.55,0,1,.45,1,1s-.45,1-1,1Zm8,6.43c-.63,.42-1.29,.82-2,1.21v-17.27c.71,.39,1.37,.79,2,1.21v14.85Zm2-1.44v-11.97c3.1,2.44,5.04,4.9301,5.79,5.98-.75,1.06-2.69,3.55-5.79,5.99Z" fill="#0e8fcf"/><path d="M26.57 16.88c-4.54 3.45-7.86 8.46-9.06 14.24 2.98 1.26 5.44 3.53 6.94 6.47.88-.47 1.78-.89 2.69-1.27-1.33-2.73-2.04-5.5-2.14-8.29-.1-2.92.51-5.31.99-7.23.4-1.56.7-2.81.58-3.92zM48.15 35.36c2.58-5.14 3.22-9.51 1.91-13.01-.69-1.84-1.83-3.25-2.94-4.6-1.32-1.62-2.66-3.29-3.02-5.54-1.02-.13-2.06-.21-3.1-.21-.91 0-1.8.07-2.69.17 2.4 4.88 3.69 10.29 3.69 15.83 0 2.05-.17 4.09-.52 6.1 2.41.18 4.63.63 6.67 1.26z" fill="#0e8fcf"/><path d="M46.22 12.57c.42 1.42 1.38 2.6 2.45 3.91 1.15 1.42 2.46 3.02 3.27 5.17 1.49 3.98.86 8.8-1.88 14.37 2.99 1.13 5.54 2.65 7.66 4.23 2.77-4.21 4.28-9.17 4.28-14.25 0-.95-.05-1.88-.15-2.81l-2.29-2.41c-3.48-4.22-8.16-7.06-13.34-8.21zM39 34c.15 0 .31 0 .46.01.36-1.97.54-3.9901.54-6.01 0-5.44-1.31-10.75-3.75-15.51-2.83.58-5.5 1.67-7.9 3.16.54 1.77.1 3.59-.42 5.64-.48 1.89-1.02 4.04-.93 6.68.09 2.56.77 5.12 2.03 7.65 3.18-1.08 6.5099-1.62 9.97-1.62zM27.44 13.88c2.38-1.48 5.01-2.57 7.79-3.22-1.75-2.96-3.95-5.67-6.57-8l-1.33-1.17c-4.93 1.74-9.17 4.93-12.22 9.05h.5c6.06-.18 9.96.91 11.83 3.34zM61.06 19.45l.14.15c-1.64-6.46-5.7-11.96-11.16-15.46l-1.04.89c-1.79 1.79-2.79 3.64-2.96 5.47 5.84 1.14 11.15 4.26 15.02 8.95zM12 30c1.24 0 2.45.16 3.6.47 1.38-6.32 5.1-11.78 10.16-15.46-1.49-1.79-4.87-2.63-10.12-2.47l-1.87-.01c-2.39 3.93-3.77 8.54-3.77 13.47 0 1.38.11 2.75.33 4.1.55-.07 1.1-.1 1.67-.1zM37.31 10.27c1.21-.18 2.44-.27 3.69-.27 1.03 0 2.05.06 3.05.18.25-2.25 1.45-4.47 3.59-6.62l.59-.5c-3.65-1.95-7.81-3.06-12.23-3.06-2.22 0-4.37.28-6.42.8l.41.36c2.95 2.64 5.41 5.73 7.32 9.11z" fill="#0e8fcf"/></svg>
