<svg xmlns="http://www.w3.org/2000/svg" viewBox="0 0 512 512" width="288" height="288"><path d="M226.44,112.37a17.79,17.79,0,0,1,5.12,15.76l-2.85,16.63a2.8,2.8,0,0,0,4.07,3l14.93-7.85a17.79,17.79,0,0,1,16.58,0l14.93,7.85a2.8,2.8,0,0,0,4.07-3l-2.85-16.63a17.79,17.79,0,0,1,5.12-15.76l12.08-11.78a2.81,2.81,0,0,0-1.55-4.79l-16.7-2.42A17.85,17.85,0,0,1,266,83.64l-7.47-15.13h0a2.79,2.79,0,0,0-5,0L246,83.64a17.85,17.85,0,0,1-13.41,9.74l-16.7,2.42a2.81,2.81,0,0,0-1.55,4.79Z" fill="#0e8fcf"/><path d="M256 215A107.5 107.5 0 10148.5 107.5 107.62 107.62 0 00256 215zM199.38 93.08A17.69 17.69 0 01213.76 81l16.7-2.43A2.79 2.79 0 00232.57 77L240 61.87a17.81 17.81 0 0131.94 0L279.43 77a2.79 2.79 0 002.12 1.53L298.24 81a17.8 17.8 0 019.87 30.37L296 123.11a2.82 2.82 0 00-.81 2.48l2.85 16.63A17.78 17.78 0 01272.24 161l-14.94-7.85a2.78 2.78 0 00-2.6 0L239.76 161a17.81 17.81 0 01-25.84-18.77l2.86-16.63a2.82 2.82 0 00-.81-2.48l-12.08-11.78A17.69 17.69 0 01199.38 93.08zM0 472v32.5A7.5 7.5 0 007.5 512h497a7.5 7.5 0 007.5-7.5V472zM338.5 457h105V244.5A27.54 27.54 0 00416 217H338.5z" fill="#0e8fcf"/><path d="M188.5 209.67V457h135V209.67a122.22 122.22 0 01-135 0zM173.5 277H96a27.54 27.54 0 00-27.5 27.5V457h105z" fill="#0e8fcf"/></svg>
