<svg id="SvgjsSvg1001" width="288" height="288" xmlns="http://www.w3.org/2000/svg" version="1.1" xmlns:xlink="http://www.w3.org/1999/xlink" xmlns:svgjs="http://svgjs.com/svgjs"><defs id="SvgjsDefs1002"></defs><g id="SvgjsG1008"><svg xmlns="http://www.w3.org/2000/svg" viewBox="0 0 48 48" width="288" height="288"><path d="M44.08,21.915l-1.75-.28a7.809,7.809,0,0,0-7.79-7.71H13.46a7.809,7.809,0,0,0-7.79,7.71l-1.75.28a.506.506,0,0,0-.42.5v5.7a.5.5,0,0,0,.44.5l1.75.19a5.706,5.706,0,0,0,5.69,5.27h5.21a5.657,5.657,0,0,0,4.94-2.91,2.819,2.819,0,0,1,4.94,0,5.657,5.657,0,0,0,4.94,2.91h5.21a5.706,5.706,0,0,0,5.69-5.27l1.75-.19a.5.5,0,0,0,.44-.5v-5.7A.506.506,0,0,0,44.08,21.915Zm-30.62-6.99H34.54a6.8,6.8,0,0,1,6.58,5.14,5.748,5.748,0,0,0-4.5-2.19H11.38a5.748,5.748,0,0,0-4.5,2.19A6.8,6.8,0,0,1,13.46,14.925ZM4.5,22.835l1.17-.18v5.15l-1.17-.14Zm21.81-1.96H21.69a.5.5,0,0,1-.5-.5.508.508,0,0,1,.5-.5h4.62a.508.508,0,0,1,.5.5A.5.5,0,0,1,26.31,20.875Zm17.19,6.79-1.17.14v-5.15l1.17.18Z" fill="#ffffff" class="svgShape color000000-0 selectable"></path></svg></g></svg>